<?xml version="1.0" encoding="UTF-8"?>
<svg id="Layer_1" xmlns="http://www.w3.org/2000/svg" version="1.1" viewBox="0 0 608.9349 604.6786">
  <!-- Generator: Adobe Illustrator 29.0.1, SVG Export Plug-In . SVG Version: 2.1.0 Build 192)  -->
  <defs>
    <style>
      .st0 {
        fill: #231f20;
      }

      .st1 {
        fill: #72c8f1;
      }

      .st2 {
        fill: #fff;
      }

      .st3 {
        opacity: .6;
      }

      .st4 {
        fill: #fee01b;
      }
    </style>
  </defs>
  <g class="st3">
    <ellipse class="st0" cx="347.167" cy="595.4809" rx="181.0608" ry="9.1977"/>
  </g>
  <g>
    <circle class="st1" cx="347.167" cy="261.7578" r="254.2649"/>
    <path class="st0" d="M100.4021,261.7578c.0094-6.7712.265-13.5395.798-20.2901.2587-3.276.5804-6.547.9653-9.8106.0958-.8123.2002-1.6235.2989-2.4354.0104-.0857.1597-1.2364.0482-.3912-.1217.9227.0734-.5289.1024-.7355.2263-1.6123.468-3.2225.7253-4.8302,2.0678-12.9231,5.1388-25.6845,9.1818-38.132,1.9589-6.0309,4.1453-11.9878,6.5528-17.8541.1537-.3746.9465-2.2686.4167-1.0183.3077-.7262.62-1.4504.935-2.1735.6743-1.5475,1.3637-3.0885,2.0687-4.6223,1.3133-2.8569,2.6798-5.6894,4.0986-8.4955,5.6955-11.2645,12.2345-22.1005,19.5379-32.3954,1.8673-2.6321,3.7854-5.2278,5.7505-7.7877-.7589.9885.1991-.2524.4642-.5901.4805-.6122.9641-1.2221,1.4502-1.8299,1.0414-1.302,2.0953-2.594,3.162-3.8754,3.9797-4.7808,8.134-9.4164,12.4516-13.8943,4.3937-4.5568,8.9566-8.9504,13.6761-13.1689,2.3194-2.0732,4.6766-4.104,7.0701-6.0911,1.1973-.994,2.4036-1.9771,3.6189-2.949.6078-.4861,1.2177-.9696,1.8299-1.4502.2624-.206.5255-.411.7886-.6162.9732-.7591-1.3712,1.035.3313-.2538,10.0557-7.6121,20.583-14.5523,31.6305-20.6439,5.5992-3.0874,11.315-5.9633,17.1317-8.6183,1.331-.6076,2.6675-1.2032,4.0088-1.7877.723-.315,1.4473-.6273,2.1735-.935-1.2596.5338.8832-.3619,1.3315-.5452,2.9297-1.1977,5.882-2.3401,8.8545-3.4271,12.1241-4.4337,24.5899-7.9316,37.2493-10.459,3.2922-.6573,6.5973-1.2496,9.9131-1.7751,1.4934-.2367,2.9889-.4601,4.4862-.6702.2066-.029,1.6582-.2241.7355-.1024-.8452.1115.3055-.0378.3912-.0482.928-.1128,1.8552-.2317,2.7838-.34,6.673-.7784,13.377-1.291,20.0905-1.5418,13.3848-.5001,26.8109.0353,40.1109,1.624.8119.097,1.623.2004,2.4342.3026.8893.1121-.13-.0207-.2593-.0381.4619.0622.9234.127,1.3849.1924,1.6116.2284,3.2211.4725,4.828.7317,3.1989.516,6.388,1.0941,9.5647,1.7328,6.4127,1.2894,12.7753,2.828,19.0685,4.6112,6.2338,1.7664,12.3999,3.7724,18.479,6.0141,2.9688,1.0948,5.9173,2.2447,8.8431,3.45.4172.1719.8337.3452,1.2501.5189-.1162-.0485-1.0303-.4379-.2338-.0982.7254.3094,1.4496.6215,2.1722.9374,1.4435.6311,2.8811,1.2758,4.3125,1.9338,11.5924,5.3287,22.7801,11.5358,33.4402,18.5456,5.21,3.4259,10.2921,7.0447,15.2383,10.8414-1.128-.8659.5739.4515.8523.6705.6116.4813,1.2211.9653,1.8282,1.4522,1.3006,1.0431,2.5909,2.099,3.8709,3.1673,2.3882,1.9933,4.74,4.0302,7.054,6.1093,9.3357,8.3884,18.0529,17.4645,26.0574,27.1314.9925,1.1986,1.974,2.4063,2.9444,3.6228.4854.6085.9667,1.22,1.4475,1.8321.2061.2623.411.5256.6155.7891-.4567-.5882-.3255-.4265.0489.0681,1.948,2.5738,3.8695,5.1656,5.7306,7.8033,3.6645,5.1934,7.1349,10.5238,10.4005,15.9769,3.2201,5.3771,6.2412,10.8734,9.0544,16.4741,1.4116,2.8103,2.7709,5.647,4.0768,8.508.6543,1.4335,1.2952,2.8731,1.9227,4.3186.1479.3408.9328,2.1813.6847,1.5913-.3194-.7595.1133.2749.1449.3522.2136.5221.4306,1.0428.6434,1.5653,4.8482,11.9044,8.7868,24.1794,11.7652,36.6835,1.5249,6.4019,2.8004,12.8629,3.8224,19.3641.2349,1.4941.4534,2.9905.6647,4.488.0375.2655.1905,1.4761.0123.0861.0445.3473.0897.6946.1336,1.042.1172.9277.2293,1.856.3362,2.7849.3761,3.2664.689,6.5399.9387,9.8183,1.0195,13.3833.9924,26.8486-.0825,40.2276-.2725,3.3913-.6128,6.7771-1.0206,10.1548-.098.8116-.2017,1.6225-.3055,2.4333.1658-1.2959-.0462.332-.1094.7783-.2447,1.7266-.5074,3.4505-.7877,5.1717-1.0567,6.49-2.3653,12.9392-3.9251,19.327-3.0506,12.4929-7.0932,24.6962-11.9564,36.5974-.128.3132-.2593.6251-.3896.9373.5216-1.2503.0683-.1605-.0344.0772-.268.6205-.5341,1.2418-.8049,1.8611-.6762,1.5465-1.3681,3.0862-2.0751,4.6188-1.3639,2.9568-2.7848,5.8873-4.2617,8.7892-2.842,5.584-5.8913,11.0626-9.1386,16.421-3.2936,5.4346-6.7909,10.7459-10.4821,15.9187-.8405,1.1778-1.6906,2.3487-2.5509,3.5122-.4631.6262-.9292,1.2502-1.398,1.8721-.2678.3553-.5372.7095-.8063,1.0639-.082.108-.9166,1.1954-.4296.5643.4963-.6432-.1804.2309-.2314.2956-.2751.3495-.5483.7005-.8239,1.0496-.4821.6109-.9672,1.2195-1.4549,1.826-1.0447,1.2992-2.102,2.5884-3.172,3.8669-8.0546,9.6249-16.8189,18.6553-26.198,26.9948-2.3249,2.0672-4.6874,4.0919-7.0862,6.0729-1.1999.9909-2.4089,1.9709-3.6268,2.9397-.5221.4153-1.0465.8277-1.5711,1.2398-.1563.1228-1.2609.9795-.5583.4371.631-.4871-.4564.3477-.5643.4296-5.0568,3.8384-10.2399,7.5051-15.5629,10.9655-10.6058,6.8946-21.7262,12.9968-33.241,18.2342-1.4345.6525-2.8751,1.2915-4.3216,1.9171-.3296.1425-2.3392.9903-1.0086.4352-.833.3475-1.6672.692-2.5035,1.0313-2.9336,1.1902-5.8895,2.3255-8.8659,3.4042-5.9879,2.1701-12.0574,4.1145-18.1921,5.8259-6.304,1.7586-12.6765,3.2715-19.0981,4.5353-3.1814.6261-6.3748,1.191-9.578,1.6945-1.6092.2529-3.2207.49-4.8344.7123-.8872.1222.1312-.0188.2602-.0353-.4632.0593-.9262.1196-1.3896.1775-.9281.1158-1.8568.2269-2.7861.3325-13.3163,1.5134-26.7509,1.9787-40.1404,1.4043-6.7047-.2876-13.3983-.8373-20.0597-1.6509-.6954-.0849-1.3903-.1743-2.0852-.2634,1.4794.1897-.7562-.1063-1.124-.1589-1.7258-.247-3.4492-.5114-5.1696-.7942-3.1961-.5253-6.3821-1.1114-9.5558-1.7583-12.7538-2.5993-25.3057-6.1889-37.5061-10.7237-2.9661-1.1025-5.903-2.275-8.8316-3.4729-.0773-.0316-1.1116-.4643-.3522-.1449.8294.3488-.4751-.2033-.6603-.2831-.6206-.2676-1.241-.5357-1.8599-.8073-1.5455-.6782-3.0842-1.3716-4.6158-2.0806-5.8004-2.6851-11.4989-5.5902-17.0797-8.7061-5.4599-3.0484-10.8069-6.2985-16.0272-9.741-2.697-1.7785-5.3602-3.6082-7.9876-5.488-1.1767-.8419-2.3462-1.694-3.5084-2.5558-.6256-.4639-1.2492-.9304-1.8705-1.4-.3811-.288-2.1966-1.6839-1.1309-.8565-9.9157-7.6981-19.2613-16.1307-27.939-25.2014-4.3771-4.5753-8.5845-9.313-12.61-14.2006-.9894-1.2012-1.9678-2.4116-2.9351-3.6307-.4147-.5226-.8252-1.0485-1.2378-1.5727-.1579-.2006-.8667-1.1248-.053-.0648-.2709-.3529-.5412-.7064-.8103-1.0606-1.8854-2.4811-3.7254-4.9968-5.5187-7.5454-7.3295-10.4165-13.8769-21.383-19.5636-32.7799-1.4044-2.8146-2.7564-5.6554-4.0549-8.5204-.6506-1.4355-1.2878-2.8772-1.9115-4.3246-.1723-.3999-.7875-1.8643-.3011-.6984-.3475-.8329-.692-1.6672-1.0313-2.5035-2.4276-5.9837-4.6253-12.0605-6.5869-18.2127-3.9434-12.368-6.9276-25.0392-8.9271-37.8656-.2509-1.6097-.4882-3.2219-.7058-4.8365.1877,1.3925-.0861-.7151-.1375-1.1308-.1003-.8123-.197-1.625-.2895-2.4383-.3584-3.1506-.6577-6.3079-.8986-9.4697-.4964-6.517-.7343-13.0497-.7433-19.5852-.0056-4.0529-3.443-7.5-7.5-7.5-4.0631,0-7.5056,3.4323-7.5,7.5.0377,27.2816,4.2244,54.6549,12.6557,80.6125,8.139,25.0576,20.0388,48.9442,35.3151,70.4147,15.4898,21.7705,34.0571,40.9552,55.2517,57.2097,20.8997,16.0284,44.2063,28.684,68.9246,37.7581,25.4745,9.3518,52.4921,14.523,79.5998,15.5762,27.3948,1.0643,55.0957-2.204,81.4757-9.6792,25.3933-7.1956,49.793-18.312,71.8465-32.8137,21.8884-14.3932,41.7029-32.0062,58.3614-52.2318,17.0246-20.6703,30.7261-43.6113,40.8909-68.3798,10.2626-25.0069,16.3461-51.5921,18.4383-78.5288,2.1325-27.4562-.1654-55.3373-6.6586-82.0984-6.2412-25.7228-16.5361-50.5844-30.2539-73.2198-13.5709-22.3929-30.5496-42.8467-50.1415-60.2214s-41.7295-31.9333-65.6122-42.7215c-24.9846-11.2859-51.3495-18.5433-78.5762-21.7195-27.4535-3.2026-55.3988-1.8757-82.4806,3.6081-26.0477,5.2745-51.3166,14.7128-74.5348,27.6358-22.8891,12.7398-43.9394,29.0411-62.0227,47.9925-18.0403,18.9064-33.3534,40.5493-44.9935,63.9511-11.9102,23.9448-20.236,49.6514-24.2814,76.0962-2.0648,13.498-3.1853,27.102-3.2042,40.7589-.0056,4.053,3.4511,7.5,7.5,7.5,4.0721,0,7.4944-3.4324,7.5-7.5Z"/>
  </g>
  <g>
    <circle class="st2" cx="356.8561" cy="202.6971" r="45.4143"/>
    <path class="st0" d="M318.9419,202.6971c.008-2.0919.1489-4.174.4262-6.2476l-.2679,1.9938c.5526-3.9068,1.5934-7.7106,3.1104-11.3531l-.7561,1.7916c1.1208-2.6363,2.4702-5.1676,4.0593-7.5521.4248-.6375.8658-1.2643,1.3222-1.8795.3339-.4501,1.2-1.4021-.3761.4758.2105-.2508.4084-.5129.6166-.7659.9365-1.1379,1.9283-2.2302,2.9704-3.2722,1.0035-1.0035,2.0536-1.9601,3.1461-2.8658.1914-.1587.6541-.6939.892-.7212-.3334.0382-1.6404,1.2401-.4758.3761.5713-.4238,1.1526-.834,1.7431-1.2307,2.4244-1.6284,5.0015-3.0085,7.6885-4.1509l-1.7916.7561c3.6425-1.517,7.4463-2.5578,11.3531-3.1104l-1.9938.2679c4.1514-.5552,8.3437-.5552,12.4951,0l-1.9938-.2679c3.9068.5526,7.7106,1.5934,11.3531,3.1104l-1.7916-.7561c2.6363,1.1208,5.1676,2.4702,7.5521,4.0593.6375.4248,1.2643.8658,1.8795,1.3222.4501.3339,1.4021,1.2-.4758-.3761.2508.2105.5129.4084.7659.6166,1.1379.9365,2.2302,1.9283,3.2722,2.9704,1.0035,1.0035,1.9601,2.0536,2.8658,3.1461.1587.1914.6939.6541.7212.892-.0382-.3334-1.2401-1.6404-.3761-.4758.4238.5713.834,1.1526,1.2307,1.7431,1.6284,2.4244,3.0085,5.0015,4.1509,7.6885l-.7561-1.7916c1.517,3.6425,2.5578,7.4463,3.1104,11.3531l-.2679-1.9938c.5552,4.1514.5552,8.3437,0,12.4951l.2679-1.9938c-.5526,3.9068-1.5934,7.7106-3.1104,11.3531l.7561-1.7916c-1.1208,2.6363-2.4702,5.1676-4.0593,7.5521-.4248.6375-.8658,1.2643-1.3222,1.8795-.3339.4501-1.2,1.4021.3761-.4758-.2105.2508-.4084.5129-.6166.7659-.9365,1.1379-1.9283,2.2302-2.9704,3.2722-1.0035,1.0035-2.0536,1.9601-3.1461,2.8658-.1914.1587-.6541.6939-.892.7212.3334-.0382,1.6404-1.2401.4758-.3761-.5713.4238-1.1526.834-1.7431,1.2307-2.4244,1.6284-5.0015,3.0085-7.6885,4.1509l1.7916-.7561c-3.6425,1.517-7.4463,2.5578-11.3531,3.1104l1.9938-.2679c-4.1514.5552-8.3437.5552-12.4951,0l1.9938.2679c-3.9068-.5526-7.7106-1.5934-11.3531-3.1104l1.7916.7561c-2.6363-1.1208-5.1676-2.4702-7.5521-4.0593-.6375-.4248-1.2643-.8658-1.8795-1.3222-.4501-.3339-1.4021-1.2.4758.3761-.2508-.2105-.5129-.4084-.7659-.6166-1.1379-.9365-2.2302-1.9283-3.2722-2.9704-1.0035-1.0035-1.9601-2.0536-2.8658-3.1461-.1587-.1914-.6939-.6541-.7212-.892.0382.3334,1.2401,1.6404.3761.4758-.4238-.5713-.834-1.1526-1.2307-1.7431-1.6284-2.4244-3.0085-5.0015-4.1509-7.6885l.7561,1.7916c-1.517-3.6425-2.5578-7.4463-3.1104-11.3531l.2679,1.9938c-.2773-2.0735-.4182-4.1556-.4262-6.2476-.0149-3.9226-3.439-7.6819-7.5-7.5-4.0507.1814-7.516,3.2957-7.5,7.5.0407,10.7044,3.2783,21.5681,9.5549,30.2879,6.4889,9.0147,15.1986,15.699,25.6234,19.5559,20.2027,7.4745,44.438.9268,58.1222-15.7002,7.247-8.8054,11.5271-19.254,12.3952-30.644.8102-10.6301-1.9131-21.6626-7.4286-30.7724-5.3872-8.8979-13.5263-16.4259-23.0528-20.6844-5.4361-2.43-10.8276-3.8977-16.7349-4.6195-5.4959-.6716-11.0838-.2716-16.5032.8109-20.7322,4.1409-37.9769,21.8929-41.1835,42.8453-.4533,2.9619-.7814,5.9227-.7928,8.9205-.0149,3.9235,3.4603,7.6809,7.5,7.5,4.0763-.1826,7.484-3.2951,7.5-7.5Z"/>
  </g>
  <g>
    <path class="st1" d="M11.4406,219.4863c9.2557-27.6128,218.085-57.565,259.1207,6.166,41.0357,63.7309,9.6171,133.881-48.393,153.7898-58.0101,19.9088-121.8604,4.9652-171.8168-41.155C7.0928,298.3503,2.1849,247.0991,11.4406,219.4863Z"/>
    <path class="st0" d="M18.6727,221.4801c.0451-.1324.0989-.2615.1453-.3934.2338-.6657-1.1141,2.3628-.5528,1.3323.1436-.2636.2748-.5314.4321-.7878.1667-.2718.3558-.5256.536-.788.5664-.8247-1.5696,1.9178-.8128,1.0583.114-.1294.2216-.2645.3359-.3938.4943-.5592,1.0312-1.08,1.5915-1.5726.3069-.2699.6245-.5257.9411-.7839.8521-.695-1.9617,1.4745-.9252.7165.1779-.1301.3542-.2621.5333-.3904,1.6125-1.1548,3.3266-2.1649,5.078-3.0927,1.0053-.5326,2.0254-1.037,3.0555-1.5197.5473-.2565,1.0976-.5067,1.6503-.7515.2843-.1259.5693-.2503.8549-.3734.0964-.0415.193-.0825.2893-.1241,1.164-.5035-1.9809.8251-1.0588.4466,11.8821-4.8778,24.4226-8.0711,36.9807-10.6563,8.8013-1.8118,17.6727-3.2754,26.5778-4.4727l-1.9938.2679c13.1623-1.7615,26.4041-2.9386,39.6709-3.5247,13.5137-.597,27.0635-.5878,40.5688.2126,7.3867.4377,14.7596,1.1191,22.0943,2.1006l-1.9938-.2679c8.453,1.1398,16.8611,2.6745,25.1221,4.8093,3.8536.9959,7.6744,2.1231,11.44,3.4135,1.7892.6131,3.5658,1.2632,5.3262,1.9545.8615.3383,1.7124.7021,2.5719,1.0449-.1938-.0773-2.0491-.8745-.9819-.412.201.0871.4022.1735.6029.2611.4655.2033.9296.4098,1.3922.6197,3.1914,1.4479,6.3131,3.0546,9.3198,4.8562,1.464.8772,2.9006,1.8007,4.3021,2.7747.6717.4668,1.3355.9451,1.9901,1.4356.1557.1167.3097.2357.4656.352.7871.5869-1.6695-1.3108-.9044-.6988.3261.2608.6551.5176.9789.7812,2.4449,1.991,4.7409,4.169,6.8151,6.5452.5004.5733.9833,1.1604,1.4605,1.753.929,1.1538-1.2771-1.7004-.3958-.5128.2515.339.5026.678.7471,1.0221,1.5104,2.1267,2.8595,4.3742,4.173,6.6257,1.7376,2.9782,3.3555,6.0265,4.8397,9.1389.3768.7902.7451,1.5844,1.1045,2.3826.1647.3659.3276.7326.4885,1.1002.1312.2996.7719,1.8031.252.5715-.5142-1.2181.0401.1062.1552.3883.1493.3662.2968.7331.4423,1.1008.3133.7916.6181,1.5866.9136,2.385,2.2182,5.992,3.9281,12.1736,5.0594,18.463.2707,1.5049.5057,3.0156.7123,4.5306l-.2679-1.9938c1.1829,8.9107,1.2045,17.9367.009,26.8473l.2679-1.9938c-.6085,4.4179-1.5017,8.7927-2.6974,13.0895-.5914,2.1251-1.2547,4.2301-1.988,6.3105-.3559,1.0095-.7281,2.0133-1.1168,3.0106-.1838.4717-.3714.9418-.5625,1.4106-.1016.2492-.1802.5518-.3215.7794l.4941-1.1705c-.088.2067-.1767.413-.2661.6191-1.738,4.0055-3.7432,7.8949-5.9967,11.6347-1.0947,1.8168-2.248,3.5984-3.4573,5.341-.5725.825-1.1576,1.6414-1.7549,2.4486-.3318.4485-.6742.889-1.0068,1.3368,1.6077-2.1653.2308-.3053-.1697.1942-2.6901,3.355-5.5984,6.5348-8.7004,9.513-1.6162,1.5517-3.2849,3.0488-5.0023,4.4878-.7746.649-1.5591,1.2863-2.3532,1.9114-1.4375,1.1317,1.321-.9876.0494-.0389-.4963.3703-.9904.7431-1.4909,1.1078-3.5693,2.6001-7.312,4.962-11.1949,7.0652-1.9099,1.0345-3.8537,2.0064-5.8271,2.9139-.5219.24-1.0458.4755-1.5717.7064-.2107.0925-.4223.1829-.633.2754-1.2215.5358,1.5579-.6462.6778-.2843-1.0691.4397-2.1411.8703-3.2229,1.2776-10.7197,4.0362-22.0178,6.7007-33.3592,8.2307l1.9938-.2679c-14.0632,1.8613-28.3217,1.8218-42.38-.0653l1.9938.2679c-12.9451-1.7698-25.6531-5.0772-37.8418-9.7792-1.5198-.5863-3.0167-1.2296-4.5337-1.8218,2.429.9483-.2809-.1247-.8397-.369-.8768-.3833-1.7505-.7736-2.621-1.1709-3.0063-1.372-5.9747-2.8272-8.9018-4.3611-6.0907-3.1918-12.0016-6.7249-17.709-10.5597-2.9749-1.9989-5.8947-4.0797-8.7568-6.237-.4714-.3553-2.769-2.2672-.8965-.6758-.5524-.4695-1.1464-.8964-1.7141-1.3476-1.4881-1.1828-2.9596-2.3864-4.4144-3.6099-5.5456-4.664-10.8772-9.5912-15.7867-14.9249-2.349-2.552-4.6053-5.1892-6.7591-7.9079-.2151-.2715-.428-.5446-.6423-.8167-.955-1.2131,1.0876,1.4389.1634.2078-.4926-.6562-.9877-1.3104-1.4727-1.9724-1.0355-1.4134-2.0437-2.8469-3.0232-4.2997-3.5283-5.233-6.6847-10.7174-9.4186-16.4063-.7467-1.5538-1.4619-3.1228-2.1447-4.7057-.2133-.4944-.7399-1.8235.1859.4485-.137-.3362-.2783-.6705-.4154-1.0067-.3176-.7788-.6271-1.561-.9288-2.3461-1.1775-3.0643-2.2344-6.175-3.1645-9.3232-1.7202-5.8221-2.9988-11.7691-3.82-17.7842l.2679,1.9938c-1.221-9.1318-1.3874-18.4193-.161-27.56l-.2679,1.9938c.6309-4.597,1.6128-9.1458,3.0803-13.5509,1.241-3.725-1.4325-8.359-5.2383-9.2259-4.1389-.9427-7.8972,1.25-9.2259,5.2383-3.8135,11.4469-4.7711,24.0051-3.9212,35.9886,1.12,15.7903,5.2587,31.0263,11.8538,45.3932,7.5666,16.4833,18.7189,31.3873,31.9131,43.7901,13.8601,13.0288,29.5567,24.3539,46.5046,33.017,16.0307,8.1943,33.2344,14.2392,50.9957,17.2859,17.9457,3.0783,35.9788,3.2999,53.9887.6615,16.4969-2.4168,33.1255-7.1961,47.652-15.5213,13.6239-7.8079,25.2737-18.6337,34.3412-31.422,8.7362-12.3211,14.8062-26.8023,17.4174-41.6808,2.8827-16.4253,2.0523-33.2724-2.5028-49.3302-2.4814-8.7474-6.0339-17.2519-10.3524-25.2487-3.0416-5.6322-6.4178-11.1196-10.6833-15.9175-6.0033-6.7527-13.721-12.0748-21.7432-16.1483-9.2826-4.7135-19.219-8.134-29.3059-10.6522-11.3746-2.8397-23.02-4.5914-34.6758-5.7721-11.8548-1.2009-23.7781-1.6955-35.6914-1.6764-12.0369.0193-24.073.5673-36.0664,1.5838-11.9362,1.0117-23.8441,2.4825-35.6649,4.4239-9.9767,1.6385-19.9055,3.6381-29.6871,6.2044-8.351,2.1909-16.534,4.8494-24.4711,8.2544-5.4519,2.3389-11.038,5.2158-15.279,9.4539-2.1036,2.1022-3.6634,4.5009-4.6219,7.3128-1.2671,3.7171,1.4513,8.3633,5.2383,9.2259,4.1619.9479,7.8693-1.2586,9.2259-5.2383Z"/>
  </g>
  <g>
    <path class="st4" d="M428.3898,210.6424c0,26.3864,23.3551,47.3084,57.3114,47.3084s91.4138-41.2525,91.4138-46.0107-75.2035-47.3904-99.8597-47.3904-48.8655,19.7063-48.8655,46.0927Z"/>
    <path class="st0" d="M420.8898,210.6424c.0279,8.1715,2.014,16.162,5.7556,23.4184,3.7193,7.2132,9.276,13.1591,15.6754,18.055,6.5184,4.987,14.2455,8.4875,22.1506,10.6167,4.6708,1.258,9.4934,1.9986,14.308,2.4203,3.6864.3229,7.4142.433,11.1042.1049,14.9301-1.3272,29.1558-7.1059,42.4902-13.6601,12.2417-6.0171,24.0429-13.0889,35.1029-21.0754,4.0893-2.9529,8.1949-5.9939,11.8867-9.4423,3.2287-3.0158,6.112-6.6532,4.9306-11.3804-.9365-3.7472-4.8928-6.3531-7.781-8.4688-3.4274-2.5107-7.0398-4.7739-10.6669-6.9816-10.5939-6.4483-21.5481-12.331-32.6715-17.8101-11.9067-5.8649-24.1137-11.4354-36.7489-15.5511-5.112-1.6651-10.2646-2.942-15.6054-3.5941-2.603-.3178-5.2048-.2873-7.8167-.0502-4.5714.4151-9.1071,1.2379-13.4585,2.7149-17.2061,5.8404-31.7688,19.4307-36.7913,37.1613-1.2368,4.3664-1.8448,8.9875-1.864,13.5226-.0166,3.9236,3.4615,7.6809,7.5,7.5,4.0777-.1826,7.4822-3.2951,7.5-7.5.0081-1.9162.1354-3.8225.3853-5.7225l-.2679,1.9938c.5144-3.6715,1.4924-7.241,2.9111-10.6659l-.7561,1.7916c1.1946-2.8207,2.6626-5.5143,4.3983-8.0391.4486-.6525.9219-1.2854,1.3939-1.9207-1.6656,2.2418.1094-.0915.5365-.5884.9957-1.1582,2.0466-2.2687,3.1462-3.3287,1.1013-1.0617,2.2514-2.0726,3.4448-3.0297.177-.1419.3549-.2827.5337-.4222l-.9785.7576c.2631-.315.7618-.5693,1.0955-.8089.5995-.4305,1.2083-.8479,1.8256-1.2524,2.6167-1.7145,5.3848-3.1794,8.2616-4.4066l-1.7916.7561c4.0945-1.7149,8.3739-2.9106,12.7706-3.5302l-1.9938.2679c3.4409-.4603,6.9052-.6113,10.3511-.1567l-1.9938-.2679c7.4885,1.0203,14.7804,3.6256,21.8005,6.3307,2.4574.9469,4.8967,1.9397,7.323,2.9634l-1.7916-.7561c11.8765,5.0245,23.4585,10.7571,34.7991,16.89,8.9147,4.821,17.8459,9.8134,26.1631,15.6241.7355.5139,1.4647,1.0371,2.181,1.5776,1.309.9877-1.85-1.467-.4678-.3577.2485.1995.495.4017.7369.6091.4186.3589.8136.7355,1.1992,1.129.069.0704.1269.1522.1966.2215.6496.646-1.223-1.6274-.9595-1.2466.0864.1249.1673.2504.229.3896l-.7561-1.7916c.0298.0734.0528.146.0638.2246l-.2679-1.9938c.0048.0552.0019.108-.0052.1629l.2679-1.9938c-.0177.1004-.0481.1946-.0858.2893l.7561-1.7916c-.1214.2836-.3095.5133-.4632.7765-.266.4556,1.6123-1.9545.7876-1.0276-.1617.1817-.3171.3684-.4815.5478-.8303.9066-1.7374,1.7436-2.657,2.5581-1.252,1.109-2.5461,2.1704-3.8581,3.2074-.3429.271-.6883.5386-1.0326.8077,2.4182-1.889.693-.5366.0873-.0793-.8732.6593-1.7531,1.3096-2.6385,1.9523-8.7072,6.3206-17.8914,12.0182-27.3483,17.1445-5.9197,3.2089-11.972,6.1783-18.1754,8.7999l1.7916-.7561c-8.3642,3.5165-17.0914,6.5239-26.1137,7.7577l1.9938-.2679c-5.6436.7472-11.3584.5485-16.9949-.185l1.9938.2679c-5.9043-.7985-11.6905-2.2935-17.1864-4.6058l1.7916.7561c-2.9775-1.2722-5.8551-2.7674-8.5776-4.5225-.7029-.4531-1.3952-.9227-2.0758-1.4088-.3374-.2409-.6692-.489-1.003-.7346-1.0212-.7513,1.4678,1.1651.5385.4184-1.23-.9883-2.4271-2.0105-3.5666-3.1027-1.0822-1.0373-2.1159-2.1248-3.0945-3.2604-.4845-.5623-.9442-1.1428-1.411-1.7195,1.8312,2.2627.0993.0942-.3128-.4995-1.6961-2.4433-3.1315-5.0528-4.3016-7.7867l.7561,1.7916c-1.4822-3.5298-2.4855-7.2246-2.9984-11.0184l.2679,1.9938c-.243-1.8965-.3655-3.8008-.372-5.7127-.0134-3.9226-3.4401-7.6818-7.5-7.5-4.052.1815-7.5144,3.2956-7.5,7.5Z"/>
  </g>
</svg>