<?xml version="1.0" encoding="UTF-8"?>
<svg id="Layer_1" xmlns="http://www.w3.org/2000/svg" version="1.1" viewBox="0 0 608.9349 523.5253">
  <!-- Generator: Adobe Illustrator 29.0.1, SVG Export Plug-In . SVG Version: 2.1.0 Build 192)  -->
  <defs>
    <style>
      .st0 {
        fill: #fff;
      }
    </style>
  </defs>
  <path class="st0" d="M110.4082,191.9685c1.6781-5.6833,3.5398-11.3102,5.6061-16.8645.9044-2.431,1.8462-4.8481,2.8251-7.2501.2665-.6539.5365-1.3064.8077-1.9584-.5995,1.4412.3008-.7032.3454-.8068.6502-1.5102,1.3151-3.0141,1.9946-4.5114,4.6356-10.2144,9.9515-20.1194,15.8975-29.6308,11.9238-19.0736,25.2104-35.1225,42.2413-50.8311,4.26-3.9292,8.6532-7.7144,13.1709-11.3445.9042-.7266,1.8161-1.4432,2.727-2.1614,1.8012-1.4202-1.1427.856.6853-.53.5549-.4207,1.1082-.8433,1.6649-1.2615,2.4139-1.8135,4.8599-3.5841,7.3366-5.3108,9.1764-6.3973,18.7743-12.1897,28.713-17.3235,4.9985-2.582,10.083-4.9974,15.2425-7.2406.6468-.2812,1.2945-.5603,1.9438-.8355-1.4381.6094.7094-.2907.8131-.3334,1.307-.5381,2.6185-1.0652,3.9343-1.5813,2.8581-1.121,5.7366-2.1898,8.6337-3.2058,10.8022-3.7882,21.8621-6.8394,33.0782-9.1274,2.8369-.5787,5.6837-1.1087,8.5388-1.5897,1.4334-.2415,2.8689-.4707,4.3063-.6875.7202-.1087,1.4409-.2142,2.1621-.3167.2997-.0426,2.3832-.3181.898-.126,6.0774-.7862,12.18-1.3645,18.298-1.7179,11.6004-.6701,23.2475-.5574,34.8325.3412,2.8105.218,5.6174.4824,8.4191.7933,1.3945.1547,2.7863.3295,4.1791.4987.2657.0323,1.4777.194.0879.0067.9233.1244,1.8456.2564,2.7673.3922,5.7235.8434,11.4186,1.8818,17.0708,3.1159,10.706,2.3375,21.2592,5.3697,31.5715,9.0768,2.5549.9184,5.0949,1.8781,7.6189,2.8785,1.0494.4159,2.096.8389,3.1398,1.2689.1545.0636,2.2223.9311.7052.2882.8299.3517,1.6574.7089,2.4832,1.07,4.9409,2.1603,9.8126,4.4787,14.6055,6.9502,9.7297,5.0172,19.1335,10.6654,28.1356,16.8944,2.1972,1.5203,4.3705,3.0752,6.5188,4.6639.8945.6615,1.7848,1.3288,2.6706,2.002.1313.0998,1.8825,1.4499.5989.4534.7027.5455,1.4023,1.0948,2.0992,1.6477,4.1784,3.3152,8.2529,6.7612,12.2156,10.3313,8.0864,7.285,15.7071,15.0864,22.8004,23.3414,1.6658,1.9386,3.3023,3.9023,4.9092,5.8901.7688.951,1.531,1.9075,2.2861,2.8695.1019.1298,1.4536,1.8789.4642.5901.5419.7059,1.0805,1.4142,1.6152,2.1256,3.2118,4.2728,6.2893,8.6465,9.2262,13.1127,6.0221,9.158,11.4519,18.7052,16.241,28.5642,1.0804,2.2242,2.1282,4.4642,3.1429,6.7191.5545,1.2321,1.099,2.4686,1.6337,3.7094.0663.1539.9353,2.2185.3011.6984.3475.833.692,1.6671,1.0313,2.5035,2.043,5.0357,3.9234,10.1374,5.6371,15.2945,3.539,10.6502,6.3656,21.5365,8.4572,32.5627.475,2.5041.9122,5.0153,1.3114,7.5326.2186,1.3783.4258,2.7584.6217,4.1401.0244.1721.3273,2.4678.1094.7783.1195.9267.2368,1.8537.3475,2.7815.6692,5.6075,1.1517,11.2372,1.4483,16.8766.6119,11.6333.4377,23.3095-.5273,34.9189-.2139,2.5731-.4667,5.143-.7585,7.7084-.1585,1.3933-.3307,2.7849-.51,4.1757.2178-1.6896-.0851.6062-.1094.7783-.1306.9216-.2663,1.8424-.4071,2.7625-.8393,5.4866-1.8587,10.9456-3.0567,16.3651-2.4134,10.917-5.5516,21.6744-9.3919,32.1749-.8545,2.3364-1.7429,4.6604-2.6658,6.9706-.5023,1.2575-1.0158,2.5105-1.5373,3.7602.6342-1.52-.2347.5445-.3011.6984-.3565.8274-.7174,1.6529-1.0827,2.4764-2.1858,4.9274-4.5293,9.7849-7.0252,14.5627-5.0159,9.6018-10.648,18.881-16.847,27.765-1.4651,2.0997-2.9617,4.1774-4.4893,6.232-.7965,1.0713-1.6018,2.136-2.4147,3.1949.9894-1.2888-.3623.4603-.4642.5901-.5492.6997-1.102,1.3964-1.6585,2.0903-3.3367,4.1607-6.8037,8.2168-10.394,12.1606-7.1775,7.8841-14.8482,15.3188-22.9529,22.2463-2.0275,1.733-4.0822,3.4343-6.163,5.1031-1.0409.8347-2.0882,1.6615-3.1421,2.4797,1.2836-.9965-.4676.3536-.5989.4534-.7086.5385-1.4201,1.0733-2.1343,1.6043-4.2903,3.19-8.6808,6.2451-13.1632,9.1589-9.0039,5.8532-18.3785,11.1358-28.0508,15.8023-2.4302,1.1725-4.8792,2.3061-7.3457,3.4003-1.2355.5481-2.4752,1.0871-3.7197,1.6145,1.5171-.6429-.5507.2246-.7052.2882-.8349.3439-1.6716.6834-2.5102,1.0184-5.0493,2.017-10.1637,3.8709-15.3328,5.5576-10.4569,3.4122-21.137,6.1387-31.9493,8.1591-2.7349.511-5.4783.977-8.2286,1.3977-1.3807.2112-2.7631.4129-4.1474.5995,1.6898-.2277-.6117.0731-.783.0945-.812.1014-1.6245.1987-2.4374.2923-5.7325.6601-11.4873,1.1256-17.2514,1.3968-12.0445.5667-24.13.2922-36.1355-.831-3.046-.285-6.0864-.6266-9.1204-1.0191,1.5058.1948-.9726-.1355-1.0244-.1429-.7526-.107-1.5046-.2174-2.2562-.3312-1.4998-.2271-2.9974-.4678-4.4929-.7215-6.1868-1.0496-12.3346-2.331-18.426-3.8387-11.5371-2.8557-22.8715-6.5278-33.8915-10.9798-2.7284-1.1022-3.7815-1.5463-7.0128-2.9963-2.6792-1.2023-5.3374-2.4513-7.9732-3.7461-5.4717-2.688-10.8463-5.5737-16.1102-8.649-5.0348-2.9414-9.9683-6.0563-14.7892-9.3367-2.2053-1.5006-4.3867-3.0361-6.544-4.6048-1.1758-.855-2.3441-1.7204-3.505-2.5956-1.823-1.3743-1.2921-.9634-3.0831-2.3786-9.205-7.2737-17.9077-15.1821-26.0278-23.6498-4.1017-4.2773-8.0549-8.697-11.8496-13.2489-1.7053-2.0456-3.3695-4.1233-5.0183-6.2146-1.4765-1.8727.8369,1.119-.6044-.7815-.4391-.579-.8797-1.1569-1.3159-1.7382-1.0181-1.3568-2.0227-2.7238-3.0136-4.1006-6.6752-9.2755-12.7064-18.9992-18.0892-29.0789-1.9073-3.5715-6.8616-4.6792-10.2614-2.6906-3.6134,2.1135-4.6054,6.676-2.6906,10.2614,23.0062,43.0807,58.1673,79.4452,100.4842,103.8423,43.4827,25.0692,94.0524,37.1358,144.1711,34.4997,46.0334-2.4212,91.1894-16.9862,129.7317-42.3306,37.5436-24.6877,68.6959-58.9582,89.3033-98.9214,21.3999-41.5002,31.4338-88.5198,28.7229-135.1474-2.674-45.9929-17.4569-91.0408-42.99-129.4293-24.8869-37.4169-59.3023-68.4027-99.3809-88.801C424.2823,7.2401,376.9229-2.5545,330.057.5595c-47.8233,3.1776-94.5015,19.4421-133.6276,47.1985-38.2396,27.1275-69.2167,64.2667-88.2596,107.1764-4.7712,10.751-8.8945,21.7646-12.2257,33.0465-1.1466,3.8833,1.3849,8.1671,5.2383,9.2259,3.9785,1.0932,8.0747-1.3395,9.2259-5.2383h0Z"/>
  <path class="st0" d="M318.9419,202.6971c.008-2.0919.1489-4.174.4262-6.2476l-.2679,1.9938c.5526-3.9068,1.5934-7.7106,3.1104-11.3531l-.7561,1.7916c1.1208-2.6363,2.4702-5.1676,4.0593-7.5521.4248-.6375.8658-1.2643,1.3222-1.8795.3339-.4501,1.2-1.4021-.3761.4758.2105-.2508.4084-.5129.6166-.7659.9365-1.1379,1.9283-2.2302,2.9704-3.2722,1.0035-1.0035,2.0536-1.9601,3.1461-2.8658.1914-.1587.6541-.6939.892-.7212-.3334.0382-1.6404,1.2401-.4758.3761.5713-.4238,1.1526-.834,1.7431-1.2307,2.4244-1.6284,5.0015-3.0085,7.6885-4.1509l-1.7916.7561c3.6425-1.517,7.4463-2.5578,11.3531-3.1104l-1.9938.2679c4.1514-.5552,8.3437-.5552,12.4951,0l-1.9938-.2679c3.9068.5526,7.7106,1.5934,11.3531,3.1104l-1.7916-.7561c2.6363,1.1208,5.1676,2.4702,7.5521,4.0593.6375.4248,1.2643.8658,1.8795,1.3222.4501.3339,1.4021,1.2-.4758-.3761.2508.2105.5129.4084.7659.6166,1.1379.9365,2.2302,1.9283,3.2722,2.9704,1.0035,1.0035,1.9601,2.0536,2.8658,3.1461.1587.1914.6939.6541.7212.892-.0382-.3334-1.2401-1.6404-.3761-.4758.4238.5713.834,1.1526,1.2307,1.7431,1.6284,2.4244,3.0085,5.0015,4.1509,7.6885l-.7561-1.7916c1.517,3.6425,2.5578,7.4463,3.1104,11.3531l-.2679-1.9938c.5552,4.1514.5552,8.3437,0,12.4951l.2679-1.9938c-.5526,3.9068-1.5934,7.7106-3.1104,11.3531l.7561-1.7916c-1.1208,2.6363-2.4702,5.1676-4.0593,7.5521-.4248.6375-.8658,1.2643-1.3222,1.8795-.3339.4501-1.2,1.4021.3761-.4758-.2105.2508-.4084.5129-.6166.7659-.9365,1.1379-1.9283,2.2302-2.9704,3.2722-1.0035,1.0035-2.0536,1.9601-3.1461,2.8658-.1914.1587-.6541.6939-.892.7212.3334-.0382,1.6404-1.2401.4758-.3761-.5713.4238-1.1526.834-1.7431,1.2307-2.4244,1.6284-5.0015,3.0085-7.6885,4.1509l1.7916-.7561c-3.6425,1.517-7.4463,2.5578-11.3531,3.1104l1.9938-.2679c-4.1514.5552-8.3437.5552-12.4951,0l1.9938.2679c-3.9068-.5526-7.7106-1.5934-11.3531-3.1104l1.7916.7561c-2.6363-1.1208-5.1676-2.4702-7.5521-4.0593-.6375-.4248-1.2643-.8658-1.8795-1.3222-.4501-.3339-1.4021-1.2.4758.3761-.2508-.2105-.5129-.4084-.7659-.6166-1.1379-.9365-2.2302-1.9283-3.2722-2.9704-1.0035-1.0035-1.9601-2.0536-2.8658-3.1461-.1587-.1914-.6939-.6541-.7212-.892.0382.3334,1.2401,1.6404.3761.4758-.4238-.5713-.834-1.1526-1.2307-1.7431-1.6284-2.4244-3.0085-5.0015-4.1509-7.6885l.7561,1.7916c-1.517-3.6425-2.5578-7.4463-3.1104-11.3531l.2679,1.9938c-.2773-2.0735-.4182-4.1556-.4262-6.2476-.0149-3.9226-3.439-7.6819-7.5-7.5-4.0507.1814-7.516,3.2957-7.5,7.5.0407,10.7044,3.2783,21.5681,9.5549,30.2879,6.4889,9.0147,15.1986,15.699,25.6234,19.5559,20.2027,7.4745,44.438.9268,58.1222-15.7002,7.247-8.8054,11.5271-19.254,12.3952-30.644.8102-10.6301-1.9131-21.6626-7.4286-30.7724-5.3872-8.8979-13.5263-16.4259-23.0528-20.6844-5.4361-2.43-10.8276-3.8977-16.7349-4.6195-5.4959-.6716-11.0838-.2716-16.5032.8109-20.7322,4.1409-37.9769,21.8929-41.1835,42.8453-.4533,2.9619-.7814,5.9227-.7928,8.9205-.0149,3.9235,3.4603,7.6809,7.5,7.5,4.0763-.1826,7.484-3.2951,7.5-7.5Z"/>
  <path class="st0" d="M18.6727,221.4801c.0451-.1324.0989-.2615.1453-.3934.2338-.6657-1.1141,2.3628-.5528,1.3323.1436-.2636.2748-.5314.4321-.7878.1667-.2718.3558-.5256.536-.788.5664-.8247-1.5696,1.9178-.8128,1.0583.114-.1294.2216-.2645.3359-.3938.4943-.5592,1.0312-1.08,1.5915-1.5726.3069-.2699.6245-.5257.9411-.7839.8521-.695-1.9617,1.4745-.9252.7165.1779-.1301.3542-.2621.5333-.3904,1.6125-1.1548,3.3266-2.1649,5.078-3.0927,1.0053-.5326,2.0254-1.037,3.0555-1.5197.5473-.2565,1.0976-.5067,1.6503-.7515.2843-.1259.5693-.2503.8549-.3734.0964-.0415.193-.0825.2893-.1241,1.164-.5035-1.9809.8251-1.0588.4466,11.8821-4.8778,24.4226-8.0711,36.9807-10.6563,8.8013-1.8118,17.6727-3.2754,26.5778-4.4727l-1.9938.2679c13.1623-1.7615,26.4041-2.9386,39.6709-3.5247,13.5137-.597,27.0635-.5878,40.5688.2126,7.3867.4377,14.7596,1.1191,22.0943,2.1006l-1.9938-.2679c8.453,1.1398,16.8611,2.6745,25.1221,4.8093,3.8536.9959,7.6744,2.1231,11.44,3.4135,1.7892.6131,3.5658,1.2632,5.3262,1.9545.8615.3383,1.7124.7021,2.5719,1.0449-.1938-.0773-2.0491-.8745-.9819-.412.201.0871.4022.1735.6029.2611.4655.2033.9296.4098,1.3922.6197,3.1914,1.4479,6.3131,3.0546,9.3198,4.8562,1.464.8772,2.9006,1.8007,4.3021,2.7747.6717.4668,1.3355.9451,1.9901,1.4356.1557.1167.3097.2357.4656.352.7871.5869-1.6695-1.3108-.9044-.6988.3261.2608.6551.5176.9789.7812,2.4449,1.991,4.7409,4.169,6.8151,6.5452.5004.5733.9833,1.1604,1.4605,1.753.929,1.1538-1.2771-1.7004-.3958-.5128.2515.339.5026.678.7471,1.0221,1.5104,2.1267,2.8595,4.3742,4.173,6.6257,1.7376,2.9782,3.3555,6.0265,4.8397,9.1389.3768.7902.7451,1.5844,1.1045,2.3826.1647.3659.3276.7326.4885,1.1002.1312.2996.7719,1.8031.252.5715-.5142-1.2181.0401.1062.1552.3883.1493.3662.2968.7331.4423,1.1008.3133.7916.6181,1.5866.9136,2.385,2.2182,5.992,3.9281,12.1736,5.0594,18.463.2707,1.5049.5057,3.0156.7123,4.5306l-.2679-1.9938c1.1829,8.9107,1.2045,17.9367.009,26.8473l.2679-1.9938c-.6085,4.4179-1.5017,8.7927-2.6974,13.0895-.5914,2.1251-1.2547,4.2301-1.988,6.3105-.3559,1.0095-.7281,2.0133-1.1168,3.0106-.1838.4717-.3714.9418-.5625,1.4106-.1016.2492-.1802.5518-.3215.7794l.4941-1.1705c-.088.2067-.1767.413-.2661.6191-1.738,4.0055-3.7432,7.8949-5.9967,11.6347-1.0947,1.8168-2.248,3.5984-3.4573,5.341-.5725.825-1.1576,1.6414-1.7549,2.4486-.3318.4485-.6742.889-1.0068,1.3368,1.6077-2.1653.2308-.3053-.1697.1942-2.6901,3.355-5.5984,6.5348-8.7004,9.513-1.6162,1.5517-3.2849,3.0488-5.0023,4.4878-.7746.649-1.5591,1.2863-2.3532,1.9114-1.4375,1.1317,1.321-.9876.0494-.0389-.4963.3703-.9904.7431-1.4909,1.1078-3.5693,2.6001-7.312,4.962-11.1949,7.0652-1.9099,1.0345-3.8537,2.0064-5.8271,2.9139-.5219.24-1.0458.4755-1.5717.7064-.2107.0925-.4223.1829-.633.2754-1.2215.5358,1.5579-.6462.6778-.2843-1.0691.4397-2.1411.8703-3.2229,1.2776-10.7197,4.0362-22.0178,6.7007-33.3592,8.2307l1.9938-.2679c-14.0632,1.8613-28.3217,1.8218-42.38-.0653l1.9938.2679c-12.9451-1.7698-25.6531-5.0772-37.8418-9.7792-1.5198-.5863-3.0167-1.2296-4.5337-1.8218,2.429.9483-.2809-.1247-.8397-.369-.8768-.3833-1.7505-.7736-2.621-1.1709-3.0063-1.372-5.9747-2.8272-8.9018-4.3611-6.0907-3.1918-12.0016-6.7249-17.709-10.5597-2.9749-1.9989-5.8947-4.0797-8.7568-6.237-.4714-.3553-2.769-2.2672-.8965-.6758-.5524-.4695-1.1464-.8964-1.7141-1.3476-1.4881-1.1828-2.9596-2.3864-4.4144-3.6099-5.5456-4.664-10.8772-9.5912-15.7867-14.9249-2.349-2.552-4.6053-5.1892-6.7591-7.9079-.2151-.2715-.428-.5446-.6423-.8167-.955-1.2131,1.0876,1.4389.1634.2078-.4926-.6562-.9877-1.3104-1.4727-1.9724-1.0355-1.4134-2.0437-2.8469-3.0232-4.2997-3.5283-5.233-6.6847-10.7174-9.4186-16.4063-.7467-1.5538-1.4619-3.1228-2.1447-4.7057-.2133-.4944-.7399-1.8235.1859.4485-.137-.3362-.2783-.6705-.4154-1.0067-.3176-.7788-.6271-1.561-.9288-2.3461-1.1775-3.0643-2.2344-6.175-3.1645-9.3232-1.7202-5.8221-2.9988-11.7691-3.82-17.7842l.2679,1.9938c-1.221-9.1318-1.3874-18.4193-.161-27.56l-.2679,1.9938c.6309-4.597,1.6128-9.1458,3.0803-13.5509,1.241-3.725-1.4325-8.359-5.2383-9.2259-4.1389-.9427-7.8972,1.25-9.2259,5.2383-3.8135,11.4469-4.7711,24.0051-3.9212,35.9886,1.12,15.7903,5.2587,31.0263,11.8538,45.3932,7.5666,16.4833,18.7189,31.3873,31.9131,43.7901,13.8601,13.0288,29.5567,24.3539,46.5046,33.017,16.0307,8.1943,33.2344,14.2392,50.9957,17.2859,17.9457,3.0783,35.9788,3.2999,53.9887.6615,16.4969-2.4168,33.1255-7.1961,47.652-15.5213,13.6239-7.8079,25.2737-18.6337,34.3412-31.422,8.7362-12.3211,14.8062-26.8023,17.4174-41.6808,2.8827-16.4253,2.0523-33.2724-2.5028-49.3302-2.4814-8.7474-6.0339-17.2519-10.3524-25.2487-3.0416-5.6322-6.4178-11.1196-10.6833-15.9175-6.0033-6.7527-13.721-12.0748-21.7432-16.1483-9.2826-4.7135-19.219-8.134-29.3059-10.6522-11.3746-2.8397-23.02-4.5914-34.6758-5.7721-11.8548-1.2009-23.7781-1.6955-35.6914-1.6764-12.0369.0193-24.073.5673-36.0664,1.5838-11.9362,1.0117-23.8441,2.4825-35.6649,4.4239-9.9767,1.6385-19.9055,3.6381-29.6871,6.2044-8.351,2.1909-16.534,4.8494-24.4711,8.2544-5.4519,2.3389-11.038,5.2158-15.279,9.4539-2.1036,2.1022-3.6634,4.5009-4.6219,7.3128-1.2671,3.7171,1.4513,8.3633,5.2383,9.2259,4.1619.9479,7.8693-1.2586,9.2259-5.2383Z"/>
  <path class="st0" d="M420.8898,210.6424c.0279,8.1715,2.014,16.162,5.7556,23.4184,3.7193,7.2132,9.276,13.1591,15.6754,18.055,6.5184,4.987,14.2455,8.4875,22.1506,10.6167,4.6708,1.258,9.4934,1.9986,14.308,2.4203,3.6864.3229,7.4142.433,11.1042.1049,14.9301-1.3272,29.1558-7.1059,42.4902-13.6601,12.2417-6.0171,24.0429-13.0889,35.1029-21.0754,4.0893-2.9529,8.1949-5.9939,11.8867-9.4423,3.2287-3.0158,6.112-6.6532,4.9306-11.3804-.9365-3.7472-4.8928-6.3531-7.781-8.4688-3.4274-2.5107-7.0398-4.7739-10.6669-6.9816-10.5939-6.4483-21.5481-12.331-32.6715-17.8101-11.9067-5.8649-24.1137-11.4354-36.7489-15.5511-5.112-1.6651-10.2646-2.942-15.6054-3.5941-2.603-.3178-5.2048-.2873-7.8167-.0502-4.5714.4151-9.1071,1.2379-13.4585,2.7149-17.2061,5.8404-31.7688,19.4307-36.7913,37.1613-1.2368,4.3664-1.8448,8.9875-1.864,13.5226-.0166,3.9236,3.4615,7.6809,7.5,7.5,4.0777-.1826,7.4822-3.2951,7.5-7.5.0081-1.9162.1354-3.8225.3853-5.7225l-.2679,1.9938c.5144-3.6715,1.4924-7.241,2.9111-10.6659l-.7561,1.7916c1.1946-2.8207,2.6626-5.5143,4.3983-8.0391.4486-.6525.9219-1.2854,1.3939-1.9207-1.6656,2.2418.1094-.0915.5365-.5884.9957-1.1582,2.0466-2.2687,3.1462-3.3287,1.1013-1.0617,2.2514-2.0726,3.4448-3.0297.177-.1419.3549-.2827.5337-.4222l-.9785.7576c.2631-.315.7618-.5693,1.0955-.8089.5995-.4305,1.2083-.8479,1.8256-1.2524,2.6167-1.7145,5.3848-3.1794,8.2616-4.4066l-1.7916.7561c4.0945-1.7149,8.3739-2.9106,12.7706-3.5302l-1.9938.2679c3.4409-.4603,6.9052-.6113,10.3511-.1567l-1.9938-.2679c7.4885,1.0203,14.7804,3.6256,21.8005,6.3307,2.4574.9469,4.8967,1.9397,7.323,2.9634l-1.7916-.7561c11.8765,5.0245,23.4585,10.7571,34.7991,16.89,8.9147,4.821,17.8459,9.8134,26.1631,15.6241.7355.5139,1.4647,1.0371,2.181,1.5776,1.309.9877-1.85-1.467-.4678-.3577.2485.1995.495.4017.7369.6091.4186.3589.8136.7355,1.1992,1.129.069.0704.1269.1522.1966.2215.6496.646-1.223-1.6274-.9595-1.2466.0864.1249.1673.2504.229.3896l-.7561-1.7916c.0298.0734.0528.146.0638.2246l-.2679-1.9938c.0048.0552.0019.108-.0052.1629l.2679-1.9938c-.0177.1004-.0481.1946-.0858.2893l.7561-1.7916c-.1214.2836-.3095.5133-.4632.7765-.266.4556,1.6123-1.9545.7876-1.0276-.1617.1817-.3171.3684-.4815.5478-.8303.9066-1.7374,1.7436-2.657,2.5581-1.252,1.109-2.5461,2.1704-3.8581,3.2074-.3429.271-.6883.5386-1.0326.8077,2.4182-1.889.693-.5366.0873-.0793-.8732.6593-1.7531,1.3096-2.6385,1.9523-8.7072,6.3206-17.8914,12.0182-27.3483,17.1445-5.9197,3.2089-11.972,6.1783-18.1754,8.7999l1.7916-.7561c-8.3642,3.5165-17.0914,6.5239-26.1137,7.7577l1.9938-.2679c-5.6436.7472-11.3584.5485-16.9949-.185l1.9938.2679c-5.9043-.7985-11.6905-2.2935-17.1864-4.6058l1.7916.7561c-2.9775-1.2722-5.8551-2.7674-8.5776-4.5225-.7029-.4531-1.3952-.9227-2.0758-1.4088-.3374-.2409-.6692-.489-1.003-.7346-1.0212-.7513,1.4678,1.1651.5385.4184-1.23-.9883-2.4271-2.0105-3.5666-3.1027-1.0822-1.0373-2.1159-2.1248-3.0945-3.2604-.4845-.5623-.9442-1.1428-1.411-1.7195,1.8312,2.2627.0993.0942-.3128-.4995-1.6961-2.4433-3.1315-5.0528-4.3016-7.7867l.7561,1.7916c-1.4822-3.5298-2.4855-7.2246-2.9984-11.0184l.2679,1.9938c-.243-1.8965-.3655-3.8008-.372-5.7127-.0134-3.9226-3.4401-7.6818-7.5-7.5-4.052.1815-7.5144,3.2956-7.5,7.5Z"/>
</svg>